<svg version="1.1" xmlns="http://www.w3.org/2000/svg" xmlns:xlink="http://www.w3.org/1999/xlink" x="0px" y="0px" viewBox="0 0 161.2 108.7" style="enable-background:new 0 0 161.2 108.7;" xml:space="preserve">
<style type="text/css">
	.st0{clip-path:url(#SVGID_2_);}
	.st1{clip-path:url(#SVGID_4_);}
	.st2{clip-path:url(#SVGID_6_);}
	.st3{clip-path:url(#SVGID_8_);}
</style>
<g>
	<g>
		<defs>
			<rect id="SVGID_1_" y="55" width="52.8" height="53.9"/>
		</defs>
		<clipPath id="SVGID_2_">
			<use xlink:href="#SVGID_1_"  style="overflow:visible;"/>
		</clipPath>
		<path d="M42.6,62.5H10.3c-1.6,0-2.8,1.3-2.8,2.8v33c0,1.6,1.3,2.8,2.8,2.8h32.3c1.6,0,2.8-1.3,2.8-2.8v-33
			C45.4,63.8,44.2,62.5,42.6,62.5L42.6,62.5z M14.9,81.7l10.7-8.2c0.1-0.1,0.2-0.1,0.3-0.1c0.1,0,0.2,0,0.3,0.1
			c0.2,0.1,0.2,0.3,0.1,0.5l-2.2,5.5h12.6c0.2,0,0.4,0.2,0.4,0.4v4.4c0,0.2-0.2,0.4-0.4,0.4H24.2l2.2,5.5c0.1,0.2,0,0.4-0.1,0.5
			c-0.2,0.1-0.4,0.1-0.5,0l-10.7-8.3c-0.1-0.1-0.2-0.2-0.2-0.3C14.7,81.9,14.8,81.7,14.9,81.7L14.9,81.7z M47.9,54.9H5.1
			c-2.8,0-5.1,2.3-5.1,5.1v43.8c0,2.8,2.3,5.1,5.1,5.1h42.8c2.8,0,5.1-2.3,5.1-5.1V59.9C53,57.2,50.7,54.9,47.9,54.9L47.9,54.9z
			 M47.4,98.3c0,2.6-2.2,4.8-4.8,4.8H10.3c-2.7,0-4.8-2.2-4.8-4.8v-33c0-2.7,2.2-4.8,4.8-4.8h32.3c2.7,0,4.8,2.2,4.8,4.8V98.3z
			 M47.4,98.3"/>
	</g>
</g>
<g>
	<g>
		<defs>
			<rect id="SVGID_3_" x="108.4" y="54.9" width="52.8" height="53.9"/>
		</defs>
		<clipPath id="SVGID_4_">
			<use xlink:href="#SVGID_3_"  style="overflow:visible;"/>
		</clipPath>
		<path class="st1" d="M151,62.4h-32.3c-1.6,0-2.8,1.3-2.8,2.8v33c0,1.6,1.3,2.8,2.8,2.8H151c1.6,0,2.8-1.3,2.8-2.8v-33
			C153.8,63.6,152.6,62.4,151,62.4L151,62.4z M145.6,82.7L134.9,91c-0.1,0.1-0.2,0.1-0.3,0.1c-0.1,0-0.2,0-0.3-0.1
			c-0.2-0.1-0.2-0.3-0.1-0.5l2.2-5.5h-12.6c-0.2,0-0.4-0.2-0.4-0.4v-4.4c0-0.2,0.2-0.4,0.4-0.4h12.6l-2.2-5.5
			c-0.1-0.2,0-0.4,0.1-0.5c0.2-0.1,0.4-0.1,0.5,0l10.7,8.3c0.1,0.1,0.2,0.2,0.2,0.3C145.8,82.5,145.8,82.6,145.6,82.7L145.6,82.7z
			 M156.3,54.7h-42.8c-2.8,0-5.1,2.3-5.1,5.1v43.8c0,2.8,2.3,5.1,5.1,5.1h42.8c2.8,0,5.1-2.3,5.1-5.1V59.8
			C161.3,57,159.1,54.7,156.3,54.7L156.3,54.7z M155.8,98.2c0,2.6-2.2,4.8-4.8,4.8h-32.3c-2.7,0-4.8-2.2-4.8-4.8v-33
			c0-2.7,2.2-4.8,4.8-4.8H151c2.7,0,4.8,2.2,4.8,4.8V98.2z M155.8,98.2"/>
	</g>
</g>
<g>
	<g>
		<defs>
			<rect id="SVGID_5_" x="54.2" y="55" width="52.8" height="53.9"/>
		</defs>
		<clipPath id="SVGID_6_">
			<use xlink:href="#SVGID_5_"  style="overflow:visible;"/>
		</clipPath>
		<path class="st2 down-key" d="M96.8,101.4c1.6,0,2.8-1.3,2.8-2.8v-33c0-1.6-1.3-2.8-2.8-2.8H64.6c-1.6,0-2.8,1.3-2.8,2.8v33
			c0,1.6,1.3,2.8,2.8,2.8H96.8L96.8,101.4z M88.6,81.3c0.1,0.1,0.1,0.2,0.1,0.3c0,0.1,0,0.2-0.1,0.3l-8.3,10.7
			c-0.1,0.1-0.2,0.2-0.3,0.2c-0.1,0-0.3-0.1-0.3-0.2l-8.3-10.7c-0.1-0.2-0.1-0.4,0-0.5c0.1-0.2,0.3-0.2,0.5-0.1l5.5,2.2l0-12.6
			c0-0.2,0.2-0.4,0.4-0.4h4.4c0.2,0,0.4,0.2,0.4,0.4v12.7l5.5-2.2C88.3,81.1,88.5,81.2,88.6,81.3L88.6,81.3z M102.1,109
			c2.8,0,5.1-2.3,5.1-5.1V60.2c0-2.8-2.3-5.1-5.1-5.1H59.3c-2.8,0-5.1,2.3-5.1,5.1v43.8c0,2.8,2.3,5.1,5.1,5.1H102.1L102.1,109z
			 M101.7,98.5c0,2.7-2.2,4.8-4.8,4.8H64.6c-2.7,0-4.8-2.2-4.8-4.8v-33c0-2.7,2.2-4.8,4.8-4.8h32.3c2.7,0,4.8,2.2,4.8,4.8V98.5z
			 M101.7,65.6"/>
	</g>
</g>
<g>
	<g>
		<defs>
			<rect id="SVGID_7_" x="54.2" width="52.8" height="53.9"/>
		</defs>
		<clipPath id="SVGID_8_">
			<use xlink:href="#SVGID_7_"  style="overflow:visible;"/>
		</clipPath>
		<path class="st3" d="M96.8,7.5H64.6c-1.6,0-2.8,1.3-2.8,2.8v33c0,1.6,1.3,2.8,2.8,2.8h32.3c1.6,0,2.8-1.3,2.8-2.8v-33
			C99.7,8.8,98.4,7.5,96.8,7.5L96.8,7.5z M88.6,28c-0.1,0.2-0.3,0.2-0.5,0.1L82.6,26v12.7c0,0.2-0.2,0.4-0.4,0.4h-4.4
			c-0.2,0-0.4-0.2-0.4-0.4l0-12.6l-5.5,2.2c-0.2,0.1-0.4,0-0.5-0.1c-0.1-0.2-0.1-0.4,0-0.5l8.3-10.7c0.1-0.1,0.2-0.2,0.3-0.2
			c0.1,0,0.3,0.1,0.3,0.2l8.3,10.7c0.1,0.1,0.1,0.2,0.1,0.3C88.7,27.8,88.7,27.9,88.6,28L88.6,28z M102.1-0.1H59.3
			c-2.8,0-5.1,2.3-5.1,5.1v43.8c0,2.8,2.3,5.1,5.1,5.1h42.8c2.8,0,5.1-2.3,5.1-5.1V4.9C107.2,2.2,104.9-0.1,102.1-0.1L102.1-0.1z
			 M101.7,43.3c0,2.6-2.2,4.8-4.8,4.8H64.6c-2.7,0-4.8-2.2-4.8-4.8v-33c0-2.7,2.2-4.8,4.8-4.8h32.3c2.7,0,4.8,2.2,4.8,4.8V43.3z
			 M101.7,43.3"/>
	</g>
</g>
</svg>
