<?xml version="1.0" encoding="utf-8"?>
<!-- Generator: Adobe Illustrator 19.0.0, SVG Export Plug-In . SVG Version: 6.00 Build 0)  -->
<svg version="1.1" id="Camada_1" xmlns="http://www.w3.org/2000/svg" xmlns:xlink="http://www.w3.org/1999/xlink" x="0px" y="0px"
	 viewBox="0 0 50 50" style="enable-background:new 0 0 50 50;" xml:space="preserve">
<style type="text/css">
	.st0{fill:none;}
</style>
<g id="XMLID_83_">
	<path id="XMLID_84_" class="st0" d="M32.8,27.6c-3.9,0-7.1,2-7.1,4.4c0,2.4,3.3,4.4,7.1,4.4c3.9,0,7.1-2,7.1-4.4
		C39.9,29.6,36.6,27.6,32.8,27.6z"/>
	<polygon id="XMLID_86_" class="st0" points="26.1,1.8 23.9,1.8 23.9,4.4 27.7,4.4 	"/>
	<path id="XMLID_123_" d="M23.8,48l-0.7-6.2h16.8V40H22.1h-0.9l-1.6-16h0.8h19.6v-1.8H21.1l-0.5-2.7h19.4v-1.8H19.4h-0.9
		c-0.5,0-0.9-0.4-0.9-0.9v-5.3c0-0.5,0.4-0.9,0.9-0.9h1.8h19.6V8.9H20.3c-0.5,0-0.9-0.4-0.9-0.9V7.1c0-0.5,0.4-0.9,0.9-0.9h19.6V4.4
		H29.7l-2.4-4C27.2,0.2,26.9,0,26.6,0H23c-0.5,0-0.9,0.4-0.9,0.9v3.6h-1.8c-1.5,0-2.7,1.2-2.7,2.7V8c0,0.4,0.1,0.7,0.2,1
		c-1.1,0.3-2,1.3-2,2.6v5.3c0,1.5,1.2,2.7,2.7,2.7h0.2l0.5,2.7h-0.7c-0.3,0-0.5,0.1-0.7,0.3c-0.2,0.2-0.3,0.4-0.2,0.7L19.4,41
		c0,0.5,0.4,0.8,0.9,0.8h0.9l0.8,7.2c0.1,0.4,0.4,0.8,0.9,0.8h16.9V48H23.8z M23.9,1.8h2.2l1.6,2.7h-3.8V1.8z"/>
	<path id="XMLID_124_" d="M32.8,25.8c-5,0-8.9,2.7-8.9,6.2c0,3.5,3.9,6.2,8.9,6.2c2.9,0,5.5-1,7.1-2.5V32c0,2.4-3.3,4.4-7.1,4.4
		c-3.9,0-7.1-2-7.1-4.4c0-2.4,3.3-4.4,7.1-4.4c3.9,0,7.1,2,7.1,4.4v-3.8C38.3,26.8,35.7,25.8,32.8,25.8z"/>
</g>
</svg>
