<?xml version="1.0" encoding="utf-8"?>
<!-- Generator: Adobe Illustrator 19.0.0, SVG Export Plug-In . SVG Version: 6.00 Build 0)  -->
<svg version="1.1" id="Camada_1" xmlns="http://www.w3.org/2000/svg" xmlns:xlink="http://www.w3.org/1999/xlink" x="0px" y="0px"
	 viewBox="0 0 50 50" style="enable-background:new 0 0 50 50;" xml:space="preserve">
<style type="text/css">
	.st101{fill:none;}
</style>
<g>
	<ellipse class="st101" cx="9.1" cy="28.6" rx="2.7" ry="2.8"/>
	<path class="st101" d="M36.1,26.5c1.5,0,2.7-1.3,2.7-2.8s-1.2-2.8-2.7-2.8c-1.5,0-2.7,1.3-2.7,2.8S34.6,26.5,36.1,26.5z"/>
	<ellipse class="st101" cx="15.8" cy="39.3" rx="2.7" ry="2.8"/>
	<path class="st101" d="M28,10.1c-1.5,0-2.7,1.3-2.7,2.8s1.2,2.8,2.7,2.8c1.5,0,2.7-1.3,2.7-2.8S29.5,10.1,28,10.1z"/>
	<polygon class="st101" points="19.6,18.7 16.4,14.9 16,15.1 17.4,19.9 	"/>
	<path class="st101" d="M15.7,13.5c0.7-0.4,1.3-1.2,1.5-2c0.3-0.9,0.2-1.8-0.3-2.6l0,0c-0.3-0.7-0.9-1.1-1.4-1.4l-0.2-0.2
		c-0.2-0.2-0.4-0.4-0.6-0.5c-0.4-0.3-0.8-0.6-1.3-1c-0.7-0.8-1-1.9-0.9-3l0-0.2c0-0.2,0.1-0.3,0.1-0.5c-0.4,0.3-0.7,0.6-0.9,1
		c-0.2,2.1,0.9,4,2.2,6.1c0.1,0.2,0.1,0.4,0,0.6c-0.1,0.2-0.4,0.4-0.7,0.4c-0.2,0-0.5-0.1-0.6-0.4C12,8.6,11.4,7.4,11,6.4
		c0,0,0,0,0,0c0,1.4,0.7,2.8,1.4,4.2c0.1,0.2,0.1,0.4,0,0.6c-0.1,0.2-0.4,0.4-0.7,0.4c0,0,0,0,0,0c-0.1,0-0.2,0-0.3-0.1c0,0,0,0,0,0
		c0.1,0.2,0.1,0.4,0.1,0.5c0.4,0.8,1,1.4,1.9,1.6C14.2,13.9,15.1,13.9,15.7,13.5z"/>
	<path class="st101" d="M18,21.6c0.2,0.4,0.3,0.7,0.5,1.1c0,0,0-0.1,0-0.1c0.1-0.2,0.4-0.4,0.7-0.4c0.1,0,0.2,0,0.3,0.1
		c0,0,0.1,0.1,0.1,0.1c0.1,0.1,0.1,0.1,0.2,0.2c0.3,0.5,0.6,0.9,0.8,1.4c0,0,0,0.1,0,0.1c0.3,0.5,0.5,1,0.7,1.5
		c0.2,0.3,0,0.7-0.3,0.9c-0.1,0.1-0.2,0.1-0.3,0.1c-0.3,0-0.5-0.1-0.6-0.4c0-0.1-0.1-0.2-0.1-0.3c0.3,0.6,0.5,1.2,0.8,1.7
		c-0.1-0.2-0.1-0.4,0-0.6c0.1-0.2,0.4-0.4,0.7-0.4c0.1,0,0.2,0,0.3,0.1c0,0,0,0.1,0.1,0.1c0.1,0.1,0.1,0.1,0.2,0.2c0,0,0,0.1,0,0.1
		c0.1,0.1,0.2,0.3,0.3,0.4c0.1,0.2,0.2,0.3,0.3,0.5c0.2,0.2,0.2,0.5,0.1,0.7C22.5,28.8,22.3,29,22,29c0,0,0,0,0,0
		c-0.1,0-0.3,0-0.4-0.1c0,0,0,0,0,0c-0.1-0.1-0.2-0.2-0.3-0.3c0,0,0,0,0,0c-0.1-0.1-0.2-0.3-0.3-0.4c0,0,0,0,0-0.1
		c-0.1-0.1-0.2-0.3-0.2-0.4c0.3,0.6,0.6,1.2,0.9,1.8l3.5-1.9c-1.3-2.6-2.8-5.1-4.4-7.6L18,21.6z"/>
	<path class="st101" d="M12.9,14.9c-0.5-0.1-0.9-0.3-1.3-0.6c-0.4,0.5-0.7,1.1-0.7,1.8c0,1.6,1.2,2.8,2.7,2.8c0.6,0,1.2-0.2,1.7-0.6
		l-0.9-3.2C13.9,15.2,13.4,15.2,12.9,14.9z"/>
	<path d="M40.2,10.2c-2.5-2.6-5.6-4.5-9.4-5.7l-0.3-0.1c-1.6-0.6-5.3-1.9-12.2-0.2c-1.2,0.3-1.9,0.5-2.9,0.9l-0.1,0
		c-0.3-0.2-0.5-0.4-0.7-0.6c-0.3-0.4-0.5-1-0.5-1.6c0.1-0.7,0.4-1.3,0.8-1.6c0.2-0.2,0.6-0.6,0.4-1.1c0-0.4-0.4-0.7-0.8-0.7l-1,0
		c-1.1,0.1-2.1,0.9-2.7,1.4c-0.1,0-0.2,0.2-0.3,0.4c-0.2,0.3-0.4,0.6-0.5,0.9C8,8.3,9.9,12.2,10,12.4c0.2,0.3,0.3,0.6,0.5,0.8
		C9.8,14,9.4,15,9.4,16c0,2.3,1.9,4.3,4.2,4.3c0.7,0,1.4-0.2,2-0.6l0.4,1.3v0.2l0,0.1c0.9,2.3,2.5,6,4.7,10c1.3,2.4,2.8,5.2,4.4,7.6
		c-0.7,1.4-0.1,2.4,0.4,3.1l0.1,0.2c0.1,0.1,0.1,0.2,0.2,0.4c0.1,0.1,0.1,0.2,0.2,0.3c0.7,1.2,0.8,2,0.5,3c-0.5,1.7-1.8,2.6-4,2.6
		h-0.1c-3.8,0-7.8-1.4-11.3-3.8c-6.2-4.5-9.8-12.5-8.9-20c0.6-4.8,2.5-9.1,5.6-12.5c0.2-0.2,0.3-0.4,0.3-0.6c0-0.2-0.1-0.4-0.3-0.6
		c-0.3-0.3-0.9-0.3-1.2,0c-3.3,3.6-5.4,8.2-6.1,13.5c-1,8.2,2.8,16.8,9.8,21.8c3.8,2.7,8.2,4.2,12.3,4.2h0.1c3,0,5-1.4,5.7-3.9
		c0.3-0.9,0.3-1.7,0.1-2.6c2.6,3.5,3.9,4,4.6,4c0.2,0,0.3,0,0.4-0.1c0.1,0,0.1,0,0.1,0l0.2,0c0.7-0.4,2.4-2.8-5-17.7
		c-0.2-0.4-0.7-0.6-1.1-0.4c-0.4,0.2-0.5,0.7-0.4,1.2c4.8,9.7,5.8,14.4,5.7,15.3c-1-0.5-4.9-5.1-10.2-15l4.2-2.2l0.2,0
		c0.4-0.2,0.5-0.7,0.4-1.2c-1.7-3.3-3.4-6.3-5.5-9.3c-0.1-0.1-2.4-2.7-4-4.6c0.6-0.7,1-1.4,1.2-2.1c0.3-1.4,0.2-2.7-0.4-3.9
		c-0.3-0.7-0.8-1.2-1.3-1.7c0.4-0.2,0.9-0.3,1.6-0.4C25.2,4.3,28.4,5.4,30,6l0.3,0.1c3.8,1.3,7,3.3,9.3,6.1l0.7,0.8v-2.6L40.2,10.2z
		 M13.6,18.9c-1.5,0-2.7-1.3-2.7-2.8c0-0.6,0.2-1.2,0.7-1.8c0.4,0.3,0.9,0.6,1.3,0.6c0.6,0.2,1,0.2,1.5,0.2l0.9,3.2
		C14.8,18.7,14.2,18.9,13.6,18.9z M16.4,14.9l3.2,3.8l-2.2,1.2L16,15.1L16.4,14.9z M11.5,12c0-0.1-0.1-0.3-0.1-0.5c0,0,0,0,0,0
		c0.1,0.1,0.2,0.1,0.3,0.1c0,0,0,0,0,0c0.3,0,0.5-0.2,0.7-0.4c0.1-0.2,0.1-0.5,0-0.6C11.6,9.1,11,7.8,11,6.4c0,0,0,0,0,0
		c0.4,1.1,1,2.2,1.8,3.4c0.1,0.2,0.3,0.4,0.6,0.4c0.3,0,0.6-0.2,0.7-0.4c0.1-0.2,0.1-0.5,0-0.6c-1.3-2.1-2.3-4-2.2-6.1
		c0.2-0.4,0.5-0.8,0.9-1c0,0.2-0.1,0.4-0.1,0.5l0,0.2c-0.1,1.1,0.2,2.2,0.9,3c0.4,0.4,0.8,0.7,1.3,1c0.3,0.2,0.4,0.4,0.6,0.5
		l0.2,0.2c0.5,0.3,1.1,0.8,1.4,1.4l0,0c0.4,0.8,0.5,1.7,0.3,2.6c-0.3,0.8-0.8,1.6-1.5,2c-0.6,0.4-1.5,0.5-2.4,0.2
		C12.5,13.4,11.8,12.8,11.5,12z M21.7,29.5c-0.3-0.6-0.6-1.2-0.9-1.8c0.1,0.1,0.2,0.3,0.2,0.4c0,0,0,0,0,0.1
		c0.1,0.1,0.2,0.3,0.3,0.4c0,0,0,0,0,0c0.1,0.1,0.2,0.2,0.3,0.3c0,0,0,0,0,0C21.7,29,21.8,29,22,29c0,0,0,0,0,0
		c0.3,0,0.5-0.2,0.6-0.4c0.1-0.2,0.1-0.5-0.1-0.7c-0.1-0.1-0.2-0.3-0.3-0.5C22.1,27.3,22,27.1,22,27c0,0,0-0.1,0-0.1
		c0-0.1-0.1-0.1-0.2-0.2c0,0,0-0.1-0.1-0.1c-0.1-0.1-0.2-0.1-0.3-0.1c-0.3,0-0.6,0.2-0.7,0.4c-0.1,0.2-0.1,0.4,0,0.6
		c-0.3-0.6-0.6-1.1-0.8-1.7c0,0.1,0.1,0.2,0.1,0.3c0.1,0.3,0.4,0.4,0.6,0.4c0.1,0,0.2,0,0.3-0.1c0.4-0.2,0.5-0.6,0.3-0.9
		c-0.2-0.5-0.4-1-0.7-1.5c0,0,0-0.1,0-0.1c-0.2-0.5-0.5-0.9-0.8-1.4c0-0.1-0.1-0.1-0.2-0.2c0,0,0-0.1-0.1-0.1
		c-0.1-0.1-0.2-0.1-0.3-0.1c-0.3,0-0.6,0.2-0.7,0.4c0,0,0,0.1,0,0.1c-0.2-0.4-0.3-0.7-0.5-1.1l2.8-1.6c1.6,2.6,3.1,5.1,4.4,7.6
		L21.7,29.5z"/>
	<path d="M33.6,36.6c-0.3,0-0.5,0.1-0.7,0.4c-0.1,0.2-0.1,0.4-0.1,0.6c0,0.4,0.4,0.7,0.8,0.7c0,0,0,0,0,0c2.5-0.2,4.6-0.9,6.5-2.2
		l0.2-0.1v-2.2l-0.6,0.5C37.9,35.7,35.9,36.4,33.6,36.6z"/>
	<path d="M36.1,19.4c-2.3,0-4.2,2-4.2,4.3s1.9,4.3,4.2,4.3c2.3,0,4.2-1.9,4.2-4.3C40.3,21.4,38.4,19.4,36.1,19.4z M36.1,20.9
		c1.5,0,2.7,1.3,2.7,2.8s-1.2,2.8-2.7,2.8c-1.5,0-2.7-1.3-2.7-2.8S34.6,20.9,36.1,20.9z"/>
	<path d="M28,8.6c-2.3,0-4.2,1.9-4.2,4.3c0,2.3,1.9,4.3,4.2,4.3c2.3,0,4.2-1.9,4.2-4.3C32.2,10.6,30.3,8.6,28,8.6z M28,15.7
		c-1.5,0-2.7-1.3-2.7-2.8s1.2-2.8,2.7-2.8c1.5,0,2.7,1.3,2.7,2.8S29.5,15.7,28,15.7z"/>
	<path d="M9.1,24.3c-2.3,0-4.2,1.9-4.2,4.3c0,2.3,1.9,4.3,4.2,4.3c2.3,0,4.2-1.9,4.2-4.3C13.2,26.2,11.3,24.3,9.1,24.3z M9.1,31.4
		c-1.5,0-2.7-1.3-2.7-2.8s1.2-2.8,2.7-2.8s2.7,1.3,2.7,2.8S10.6,31.4,9.1,31.4z"/>
	<path d="M15.8,35.1c-2.3,0-4.2,1.9-4.2,4.3c0,2.3,1.9,4.3,4.2,4.3c2.3,0,4.2-1.9,4.2-4.3C20,37,18.1,35.1,15.8,35.1z M15.8,36.5
		c1.5,0,2.7,1.3,2.7,2.8s-1.2,2.8-2.7,2.8s-2.7-1.3-2.7-2.8S14.3,36.5,15.8,36.5z"/>
	<path d="M39.7,13.9c-0.2-0.2-0.4-0.5-0.5-0.7C38.9,13,38.7,13,38.6,13c-0.2,0-0.3,0.1-0.4,0.2c-0.1,0.1-0.2,0.3-0.2,0.5
		c0,0.1,0,0.3,0.2,0.5c0.6,0.7,1.1,1.4,1.5,2l0.7,1.2v-2.7l-0.1-0.1C40.1,14.4,39.9,14.2,39.7,13.9z"/>
	<path d="M3.7,22.6l0.1,0.1H4c0.4,0,0.7-0.2,0.8-0.5c0.9-3.3,2.6-6.3,4.8-8.7c0.2-0.2,0.2-0.4,0.2-0.5c0-0.1,0-0.4-0.2-0.5
		c-0.1-0.1-0.3-0.2-0.5-0.2c0,0,0,0,0,0c-0.2,0-0.3,0.1-0.5,0.2c-2.5,2.8-4.2,6-5.1,9.2C3.4,22,3.5,22.4,3.7,22.6z"/>
	<path d="M3.8,23.1c-0.4,0-0.8,0.3-0.8,0.6c-0.3,1.3-0.4,2.7-0.4,4.4c0,0.4,0.3,0.7,0.7,0.7c0.4,0,0.7-0.4,0.7-0.7
		c0-1.5,0.1-2.9,0.4-4.1c0.1-0.2,0.1-0.4-0.1-0.6C4.2,23.2,4,23.1,3.8,23.1z"/>
	<path d="M17,47.1c0.1,0.2,0.3,0.3,0.5,0.3c1.9,0.6,3.2,0.8,4.4,0.8c2.3,0,3.9-1,4.6-2.9c0.1-0.2,0.1-0.5,0-0.7
		c-0.1-0.2-0.3-0.3-0.4-0.3c-0.2-0.1-0.4-0.1-0.6,0c-0.2,0.1-0.3,0.3-0.3,0.4c-0.5,1.3-1.7,2.9-7.3,1.2l-0.1,0
		c-0.2,0-0.5,0.2-0.7,0.3L17,46.4c0-0.2,0-0.4-0.1-0.5c-0.1-0.1-0.2-0.2-0.4-0.3c-1-0.5-1.9-1-2.8-1.5l0,0C13.4,44,13.2,43.9,13,44
		c-0.2,0.1-0.3,0.2-0.4,0.3c-0.1,0.2-0.1,0.4-0.1,0.6c0.1,0.2,0.2,0.3,0.3,0.4c1,0.6,2,1.2,3.2,1.6l0.2,0c0.2,0,0.5-0.1,0.6-0.4
		C16.9,46.7,16.9,46.9,17,47.1z"/>
</g>
</svg>
