<?xml version="1.0" encoding="UTF-8" standalone="no"?>
<svg
   xmlns:dc="http://purl.org/dc/elements/1.1/"
   xmlns:cc="http://creativecommons.org/ns#"
   xmlns:rdf="http://www.w3.org/1999/02/22-rdf-syntax-ns#"
   xmlns:svg="http://www.w3.org/2000/svg"
   xmlns="http://www.w3.org/2000/svg"
   xmlns:sodipodi="http://sodipodi.sourceforge.net/DTD/sodipodi-0.dtd"
   xmlns:inkscape="http://www.inkscape.org/namespaces/inkscape"
   class="double-chevron"
   version="1.1"
   xml:space="preserve"
   width="32px"
   height="32px"
   viewBox="0 0 32 32"
   enable-background="new 0 0 32 32"
   id="svg2"
   inkscape:version="0.91 r13725"
   sodipodi:docname="double-chevron.svg"><metadata
     id="metadata14"><rdf:RDF><cc:Work
         rdf:about=""><dc:format>image/svg+xml</dc:format><dc:type
           rdf:resource="http://purl.org/dc/dcmitype/StillImage" /></cc:Work></rdf:RDF></metadata><defs
     id="defs12" /><sodipodi:namedview
     pagecolor="#ffffff"
     bordercolor="#666666"
     borderopacity="1"
     objecttolerance="10"
     gridtolerance="10"
     guidetolerance="10"
     inkscape:pageopacity="0"
     inkscape:pageshadow="2"
     inkscape:window-width="1366"
     inkscape:window-height="744"
     id="namedview10"
     showgrid="false"
     inkscape:zoom="7.375"
     inkscape:cx="-7.5254237"
     inkscape:cy="16"
     inkscape:window-x="0"
     inkscape:window-y="24"
     inkscape:window-maximized="1"
     inkscape:current-layer="svg2" /><path
     inkscape:connector-curvature="0"
     id="path6"
     d="m 15.286,16.662 c 0.379,0.375 1.048,0.377 1.429,0 l 6.999,-6.899 c 0.394,-0.391 0.394,-1.024 0,-1.414 -0.394,-0.391 -1.034,-0.391 -1.428,0 L 16,14.544 9.715,8.349 c -0.394,-0.391 -1.034,-0.391 -1.428,0 -0.394,0.391 -0.394,1.024 0,1.414 l 6.999,6.899 z"
     class="chevron first"
     style="stroke-width:0.4;stroke-miterlimit:4;stroke-dasharray:none" /><path
     inkscape:connector-curvature="0"
     id="path8"
     d="M 22.285,15.349 16,21.544 9.715,15.348 c -0.394,-0.391 -1.034,-0.391 -1.428,0 -0.394,0.391 -0.394,1.024 0,1.414 l 6.999,6.899 c 0.379,0.375 1.048,0.377 1.429,0 l 6.999,-6.9 c 0.394,-0.39 0.394,-1.024 0,-1.414 -0.395,-0.389 -1.035,-0.389 -1.429,0.002 z"
     class="chevron last"
     style="stroke-width:0.4;stroke-miterlimit:4;stroke-dasharray:none" /></svg>