<?xml version="1.0" encoding="utf-8"?>
<!-- Generator: Adobe Illustrator 19.0.0, SVG Export Plug-In . SVG Version: 6.00 Build 0)  -->
<svg version="1.1" id="Camada_1" xmlns="http://www.w3.org/2000/svg" xmlns:xlink="http://www.w3.org/1999/xlink" x="0px" y="0px"
	 viewBox="0 0 50 50" style="enable-background:new 0 0 50 50;" xml:space="preserve">
<g id="XMLID_5_">
	<path id="XMLID_21_" d="M7.5,5.6v33c0,1,0.8,1.8,1.8,1.8h30.6v-1.5H9.3c-0.1,0-0.2-0.1-0.2-0.2v-33c0-0.1,0.1-0.2,0.2-0.2h30.6V3.8
		H9.3C8.3,3.8,7.5,4.6,7.5,5.6z"/>
	<path id="XMLID_30_" d="M39.9,47.4H4.8c-0.8,0-1.4-0.6-1.4-1.4v-2h1.8h27.1v0.6c0,1.1,0.9,2,2,2h5.6V45h-5.6
		c-0.3,0-0.5-0.2-0.5-0.5v-0.6h0h6.1v-2.3H6.3V4.7c0-1.2,0.9-2.1,2.1-2.1h31.5V0.3H8.4C6,0.3,4,2.3,4,4.7v36.8H2.2
		c-0.6,0-1.2,0.5-1.2,1.2v3.2c0,2.1,1.7,3.8,3.8,3.8h35.1V47.4z"/>
</g>
</svg>
