<?xml version="1.0" encoding="utf-8"?>
<!-- Generator: Adobe Illustrator 19.0.0, SVG Export Plug-In . SVG Version: 6.00 Build 0)  -->
<svg version="1.1" id="Camada_1" xmlns="http://www.w3.org/2000/svg" xmlns:xlink="http://www.w3.org/1999/xlink" x="0px" y="0px"
	 viewBox="0 0 50 50" style="enable-background:new 0 0 50 50;" xml:space="preserve">
<style type="text/css">
	.st0{fill:none;}
</style>
<g id="XMLID_19_">
	<path id="XMLID_20_" class="st0" d="M37.4,44.8h0.8v-1.7h-5c-0.5,0-0.8-0.3-0.8-0.8c0-0.5,0.3-0.8,0.8-0.8h5v-1.7h-2.5
		c-0.5,0-0.8-0.3-0.8-0.8c0-0.5,0.3-0.8,0.8-0.8h2.5v-1.7H26.6v1.7h5c0.5,0,0.8,0.3,0.8,0.8c0,0.5-0.3,0.8-0.8,0.8h-5v1.7h2.5
		c0.5,0,0.8,0.3,0.8,0.8c0,0.5-0.3,0.8-0.8,0.8h-2.5v1.7h0.8H37.4z"/>
	<rect id="XMLID_24_" x="30.7" y="22.4" class="st0" width="3.3" height="12.4"/>
	<path id="XMLID_25_" class="st0" d="M27.4,17.4c-0.9,0-1.7,0.7-1.7,1.7c0,0.9,0.7,1.7,1.7,1.7h1.7v-1.7
		C29.1,18.2,28.3,17.4,27.4,17.4z"/>
	<path id="XMLID_26_" class="st0" d="M39,19.1c0-0.9-0.7-1.7-1.7-1.7s-1.7,0.7-1.7,1.7v1.7h1.7C38.3,20.7,39,20,39,19.1z"/>
	<path id="XMLID_27_" class="st0" d="M29.8,47.5c0.3,0.4,0.8,0.7,1.3,0.7h2.5c0.5,0,1-0.2,1.3-0.7l0.7-1h-6.6L29.8,47.5z"/>
	<path id="XMLID_39_" d="M15.9,15.1c-0.6,5.3,1.3,10.5,5.1,14.2c2.1,2,3.4,4.3,3.9,6.6v9.8c0,0.5,0.3,0.8,0.8,0.8H27l1.5,2
		c0.7,0.8,1.6,1.3,2.7,1.3h2.5c1.1,0,2.1-0.5,2.7-1.3l1.5-2H39c0.2,0,0.5-0.1,0.6-0.2V31.9c-0.6,1-1,2-1.3,3h-2.7V22.4h1.7
		c0.9,0,1.7-0.3,2.3-0.9v-4.8c-0.6-0.6-1.4-0.9-2.3-0.9c-1.8,0-3.3,1.5-3.3,3.3v1.7h-3.3v-1.7c0-1.8-1.5-3.3-3.3-3.3
		c-1.8,0-3.3,1.5-3.3,3.3c0,1.8,1.5,3.3,3.3,3.3h1.7v12.4h-2.7c-0.7-2.4-2.2-4.7-4.2-6.8c-3.5-3.3-5.1-8-4.6-12.8
		C18.4,8.2,24,2.6,31.1,1.7c0.4,0,0.8-0.1,1.3-0.1c0.5,0,0.9,0.1,1.3,0.1c2.1,0.3,4.1,0.9,5.9,2v-2C37.9,0.9,36,0.3,34,0.1
		c-0.5,0-1-0.1-1.6-0.1c-0.6,0-1.1,0.1-1.6,0.1C23,1,16.7,7.3,15.9,15.1z M35.7,19.1c0-0.9,0.7-1.7,1.7-1.7s1.7,0.7,1.7,1.7
		c0,0.9-0.7,1.7-1.7,1.7h-1.7V19.1z M29.1,20.7h-1.7c-0.9,0-1.7-0.7-1.7-1.7c0-0.9,0.7-1.7,1.7-1.7c0.9,0,1.7,0.7,1.7,1.7V20.7z
		 M35,47.5c-0.3,0.4-0.8,0.7-1.3,0.7h-2.5c-0.5,0-1-0.2-1.3-0.7l-0.7-1h6.6L35,47.5z M30.7,22.4H34v12.4h-3.3V22.4z M26.6,43.2h2.5
		c0.5,0,0.8-0.3,0.8-0.8c0-0.5-0.3-0.8-0.8-0.8h-2.5v-1.7h5c0.5,0,0.8-0.3,0.8-0.8c0-0.5-0.3-0.8-0.8-0.8h-5v-1.7h11.6v1.7h-2.5
		c-0.5,0-0.8,0.3-0.8,0.8c0,0.5,0.3,0.8,0.8,0.8h2.5v1.7h-5c-0.5,0-0.8,0.3-0.8,0.8c0,0.5,0.3,0.8,0.8,0.8h5v1.7h-0.8h-10h-0.8V43.2
		z"/>
</g>
</svg>
