<?xml version="1.0" encoding="utf-8"?>
<!-- Generator: Adobe Illustrator 19.0.0, SVG Export Plug-In . SVG Version: 6.00 Build 0)  -->
<svg version="1.1" id="Camada_1" xmlns="http://www.w3.org/2000/svg" xmlns:xlink="http://www.w3.org/1999/xlink" x="0px" y="0px"
	 viewBox="0 0 50 50" style="enable-background:new 0 0 50 50;" xml:space="preserve">
<style type="text/css">
	.st0{fill:none;}
</style>
<g id="XMLID_48_">
	<path id="XMLID_49_" class="st0" d="M33.5,46.5L33.5,46.5l1.1-0.1c-0.1-0.3-0.1-0.6-0.1-0.9V28.3c0-0.5,0.1-0.9,0.2-1.3
		c-0.2-0.7-0.7-2.3-2-3.6c-4.7-3.8-9.4-16.4-9.6-17c-0.1-0.2-0.1-0.5-0.1-0.7c0.2-1.2,0.1-2.6-0.1-3.1c-0.6,0-2.1,0.2-3,1.4
		c-1.1,1.5-1,4.1,0.1,7.7c1.8,5.4,1.9,8.2,0.5,9.4c-0.7,0.6-1.6,0.7-2.3,0.4c-0.6-0.1-1.3-0.3-1.8-0.4c0,0-0.1,0-0.1,0
		c-3.2-0.7-9-1.1-11,0.7c-1.7,1.6-0.5,3.6-0.4,3.8c0.4,0.6,0.3,1.4-0.3,1.8c0,0-1.1,1.1-1.2,2.5c0,0.9,0.4,1.9,1.3,2.8
		c0.4,0.5,0.5,1.2,0.2,1.7c0,0-0.4,0.7-0.5,1.8c-0.1,1.4,0.6,2.6,2,3.6c0.5,0.4,0.7,1,0.5,1.6c0,0-0.5,1.4,0.3,2.7
		c0.7,1.3,2.3,2.2,4.7,2.7c1.9,0.4,4.5,0.5,7.7,0.2c0,0,0.1,0,0.1,0C26.6,47.4,33.5,46.5,33.5,46.5z"/>
	<path id="XMLID_53_" d="M33.9,49.3l2.5-0.3c0.7,0.5,1.6,0.8,2.5,0.8h1v-2.9h-1c-0.8,0-1.5-0.7-1.5-1.5V28.3c0-0.8,0.7-1.5,1.5-1.5
		h1v-2.8h-1c-0.8,0-1.5,0.2-2.1,0.5c-0.4-1-1.1-2.1-2.1-3.1c-0.1-0.1-0.1-0.1-0.2-0.1C31.3,18.6,27.4,9.5,26,5.8
		c0.1-1.2,0.3-3.7-0.9-5c-0.5-0.6-1.2-0.9-2-0.9c-0.8,0-3.6,0.2-5.4,2.6c-1.7,2.3-1.7,5.7-0.3,10.2c1.2,3.8,1.4,5.4,1.3,6.1
		c-0.6-0.1-1.1-0.2-1.7-0.3h0c-0.1,0-2.4-0.5-5.2-0.7c-3.9-0.2-6.8,0.5-8.5,2c-2.3,2.1-2,4.8-1.3,6.5c-0.6,0.8-1.3,2-1.4,3.6
		c-0.1,1.5,0.4,2.9,1.5,4.2c-0.2,0.5-0.4,1.3-0.4,2.1c-0.1,1.5,0.3,3.6,2.4,5.5c-0.1,1-0.1,2.5,0.7,4c1.1,2,3.3,3.4,6.5,4.1
		c1.4,0.3,3,0.4,4.9,0.4c1.1,0,2.3-0.1,3.5-0.1C26.8,50.2,33.5,49.3,33.9,49.3z M19.7,47.2c-3.2,0.3-5.8,0.2-7.7-0.2
		c-2.4-0.5-4-1.4-4.7-2.7c-0.7-1.3-0.3-2.7-0.3-2.7c0.2-0.6,0-1.2-0.5-1.6c-1.4-1-2.1-2.3-2-3.6c0.1-1,0.5-1.7,0.5-1.8
		c0.3-0.5,0.3-1.3-0.2-1.7C4,31.9,3.5,30.9,3.6,30c0.1-1.4,1.2-2.4,1.2-2.5c0.5-0.5,0.6-1.2,0.3-1.8c-0.1-0.2-1.3-2.3,0.4-3.8
		c2-1.8,7.8-1.4,11-0.7c0,0,0.1,0,0.1,0c0.6,0.1,1.2,0.2,1.8,0.4c0.7,0.2,1.6,0.2,2.3-0.4c1.4-1.2,1.3-4.1-0.5-9.4
		C19,8.2,19,5.5,20,4c0.9-1.3,2.4-1.4,3-1.4c0.3,0.4,0.3,1.9,0.1,3.1c0,0.2,0,0.5,0.1,0.7c0.2,0.5,4.8,13.2,9.6,17
		c1.2,1.3,1.8,2.9,2,3.6c-0.1,0.4-0.2,0.9-0.2,1.3v17.1c0,0.3,0,0.6,0.1,0.9l-1.1,0.1h0c-0.1,0-6.9,0.9-13.7,0.7
		C19.8,47.2,19.7,47.2,19.7,47.2z"/>
</g>
</svg>
