<svg version="1.1" xmlns="http://www.w3.org/2000/svg" xmlns:xlink="http://www.w3.org/1999/xlink" x="0px" y="0px" width="256px" height="256px" viewBox="0 0 256 256" style="enable-background:new 0 0 256 256;" xml:space="preserve">
	<path class="mouse-edge" d="M128,43.308c-31.501,0-57.128,25.616-57.128,57.101v57.187c0,31.484,25.627,57.098,57.128,57.098 s57.129-25.613,57.129-57.098v-57.187C185.129,68.924,159.501,43.308,128,43.308z M178.78,157.595 c0,27.985-22.78,50.75-50.78,50.75c-28,0-50.781-22.765-50.781-50.75v-57.187c0-27.984,22.78-50.753,50.781-50.753 c28,0,50.78,22.768,50.78,50.753V157.595z"/>
	<path class="mouse-btn" d="M128,62.35c-1.753,0-3.174,1.42-3.174,3.175v28.741c0,1.754,1.421,3.174,3.174,3.174s3.174-1.42,3.174-3.174V65.524 C131.174,63.77,129.753,62.35,128,62.35z"/>
	<!-- <path class="mouse-arrow" d="M127.118,161.637c-0.731,0-1.463-0.28-2.022-0.839l-14.433-14.434c-1.118-1.115-1.118-2.928,0-4.045 c1.116-1.115,2.927-1.115,4.043,0l12.443,12.444l12.878-12.475c1.133-1.099,2.943-1.07,4.044,0.063 c1.098,1.136,1.068,2.944-0.063,4.042l-14.9,14.435C128.553,161.367,127.836,161.637,127.118,161.637z"/> -->
	<!-- <path class="mouse-arrow" d="M127.118,143.013c-0.731,0-1.463-0.279-2.022-0.839l-14.433-14.433c-1.118-1.116-1.118-2.928,0-4.043 c1.116-1.118,2.927-1.118,4.043,0l12.443,12.442l12.878-12.475c1.133-1.098,2.943-1.069,4.044,0.064 c1.098,1.134,1.068,2.945-0.063,4.045l-14.9,14.434C128.553,142.746,127.836,143.013,127.118,143.013z"/> -->
	<!-- <path class="mouse-arrow" d="M127.118,122.76c-0.731,0-1.463-0.28-2.022-0.837l-14.433-14.434c-1.118-1.117-1.118-2.928,0-4.044 c1.116-1.118,2.927-1.118,4.043,0l12.443,12.443l12.878-12.475c1.133-1.101,2.943-1.072,4.044,0.064 c1.098,1.134,1.068,2.944-0.063,4.044l-14.9,14.434C128.553,122.492,127.836,122.76,127.118,122.76z"/> -->
</svg>
