<?xml version="1.0" encoding="utf-8"?>
<!-- Generator: Adobe Illustrator 19.0.0, SVG Export Plug-In . SVG Version: 6.00 Build 0)  -->
<svg version="1.1" id="Camada_1" xmlns="http://www.w3.org/2000/svg" xmlns:xlink="http://www.w3.org/1999/xlink" x="0px" y="0px"
	 viewBox="0 0 50 50" style="enable-background:new 0 0 50 50;" xml:space="preserve">
<style type="text/css">
	.st0{fill:none;}
</style>
<g id="XMLID_19_">
	<path id="XMLID_33_" class="st0" d="M12.5,23.2c-0.2,0-0.5,0-0.7,0c-1.9,0-3-0.6-4-1.1c-0.8-0.4-1.6-0.8-2.8-0.9
		c-0.4,2.1-0.4,4.1,0,5.8c0.5,2.5,1.7,4.2,3.4,4.8c1.7,0.6,3.7,0,5.6-1.7c2.1-1.8,3.8-4.5,4.9-7.6c0.3-0.7,0.5-1.5,0.6-2.2
		c-1.3,0.2-2,0.7-2.8,1.2C15.9,22.3,14.7,23.1,12.5,23.2z M8,29.2c-0.5,0-0.9-0.4-0.9-0.9c0-0.5,0.4-0.9,0.9-0.9
		c0.5,0,0.9,0.4,0.9,0.9C8.9,28.8,8.5,29.2,8,29.2z M11.9,28.1c-0.5,0-0.9-0.4-0.9-0.9c0-0.5,0.4-0.9,0.9-0.9c0.5,0,0.9,0.4,0.9,0.9
		C12.8,27.7,12.4,28.1,11.9,28.1z"/>
	<path id="XMLID_35_" class="st0" d="M7.9,33.6c-0.1-0.1-0.3-0.1-0.4-0.1c-0.2,0-0.4,0-0.6,0.1c-0.3,0.2-0.6,0.4-0.7,0.8
		C5.9,35.2,6.3,36,7,36.2c0.3,0.1,0.7,0.1,1.1-0.1c0.3-0.2,0.6-0.4,0.7-0.8c0.1-0.3,0.1-0.7-0.1-1.1C8.6,34,8.3,33.7,7.9,33.6z"/>
	<path id="XMLID_36_" class="st0" d="M5.9,18.1c-0.2,0.5-0.3,1-0.4,1.5c1.4,0.1,2.3,0.6,3.2,1c1,0.5,1.9,1,3.7,0.9
		c1.8-0.1,2.6-0.7,3.6-1.3c1-0.7,2-1.4,4.1-1.6c0.1-0.9,0.2-1.7,0.1-2.6l-11-3.8C7.8,13.8,6.7,15.9,5.9,18.1z"/>
	<path id="XMLID_37_" class="st0" d="M37.4,36.8c-0.2-0.1-0.4-0.1-0.6-0.1c-0.2,0-0.3,0-0.5,0.1c-0.7,0.3-1.1,1.1-0.8,1.8
		c0.3,0.7,1.1,1.1,1.8,0.8c0.7-0.3,1.1-1.1,0.8-1.8C38,37.2,37.7,36.9,37.4,36.8z"/>
	<path id="XMLID_48_" class="st0" d="M38.1,32.8c0.5-1.1,0.5-2.3,0.1-3.4l-4.3-11.2c-1,0-1.5-0.4-2-0.6c-0.5-0.3-0.8-0.5-1.5-0.4
		c-0.7,0-1,0.3-1.5,0.6c-0.5,0.4-1.2,0.9-2.4,1c-0.1,0-0.2,0-0.3,0c-0.7,0-1.2-0.2-1.6-0.3L30,32.6c0.4,1.1,1.2,2,2.3,2.4
		c1.1,0.5,2.3,0.5,3.4,0.1C36.8,34.7,37.7,33.8,38.1,32.8z M30.6,24.9c-0.5,0-0.9-0.4-0.9-0.9s0.4-0.9,0.9-0.9s0.9,0.4,0.9,0.9
		S31.1,24.9,30.6,24.9z M32.5,32.2c-0.5,0-0.9-0.4-0.9-0.9c0-0.5,0.4-0.9,0.9-0.9c0.5,0,0.9,0.4,0.9,0.9
		C33.4,31.8,33,32.2,32.5,32.2z M34.8,28.1c-0.5,0-0.9-0.4-0.9-0.9c0-0.5,0.4-0.9,0.9-0.9c0.5,0,0.9,0.4,0.9,0.9
		C35.7,27.7,35.3,28.1,34.8,28.1z"/>
	<path id="XMLID_51_" class="st0" d="M26.3,16.9c0.7,0,1-0.3,1.5-0.6c0.5-0.4,1.2-0.9,2.4-1c1.3-0.1,2,0.3,2.5,0.6
		c0.1,0.1,0.3,0.2,0.4,0.2l-2.4-6.1l-8.2,3.2l1,2.7c0.5,0.1,0.9,0.3,1.2,0.5C25.3,16.8,25.6,17,26.3,16.9z"/>
	<path id="XMLID_54_" d="M39.7,49.1v-6.1l-0.9-2.4c0.4-0.3,0.7-0.7,0.9-1.2v-2.7c-0.3-0.6-0.7-1-1.2-1.4c0.5-0.5,0.9-1.1,1.2-1.7
		v-5.4L32.1,8.6c-0.1-0.2-0.3-0.4-0.5-0.5c-0.2-0.1-0.5-0.1-0.7,0l-9.8,3.8c-0.5,0.2-0.7,0.7-0.5,1.1l0.5,1.4l-12-4.1
		c-0.3-0.1-0.7,0-0.9,0.2c-1.7,1.9-3,4.3-3.9,6.9c-1.2,3.5-1.5,7-0.9,10c0.4,2,1.3,3.6,2.4,4.7c-0.6,0.4-1,0.9-1.3,1.6
		c-0.5,1.4,0,2.8,1.2,3.6l-2.1,6.2l-2.2-0.8c-0.5-0.2-1,0.1-1.1,0.5c-0.2,0.5,0.1,1,0.5,1.1l6.2,2.1c0.1,0,0.2,0,0.3,0
		c0.4,0,0.7-0.2,0.8-0.6c0.2-0.5-0.1-1-0.5-1.1l-2.2-0.8L7.3,38c0,0,0.1,0,0.1,0c0.5,0,0.9-0.1,1.4-0.3c0.8-0.4,1.3-1,1.6-1.8
		c0.2-0.7,0.2-1.4,0-2.1c1.6-0.2,3.2-0.9,4.8-2.3c2.3-2,4.3-4.9,5.4-8.4c0.8-2.3,1.2-4.6,1.2-6.8l6.5,16.8c0.6,1.5,1.7,2.7,3.3,3.4
		c0.7,0.3,1.4,0.5,2.2,0.5c-0.2,0.6-0.2,1.3,0.1,2c0.5,1.2,1.7,2,2.9,2c0.1,0,0.2,0,0.3,0l2.4,6.1l-2.2,0.9
		c-0.5,0.2-0.7,0.7-0.5,1.1c0.1,0.4,0.5,0.6,0.8,0.6c0.1,0,0.2,0,0.3-0.1L39.7,49.1z M8.8,35.4c-0.1,0.3-0.4,0.6-0.7,0.8
		c-0.3,0.2-0.7,0.2-1.1,0.1c-0.7-0.2-1.1-1-0.9-1.8c0.1-0.3,0.4-0.6,0.7-0.8c0.2-0.1,0.4-0.1,0.6-0.1c0.2,0,0.3,0,0.4,0.1
		c0.3,0.1,0.6,0.4,0.8,0.7C8.9,34.6,8.9,35,8.8,35.4z M19,22.6c-1.1,3.2-2.8,5.9-4.9,7.6c-2,1.7-4,2.2-5.6,1.7
		c-1.7-0.6-2.9-2.3-3.4-4.8c-0.4-1.8-0.4-3.8,0-5.8c1.2,0.1,1.9,0.4,2.8,0.9c1,0.5,2.1,1.1,4,1.1c0.2,0,0.4,0,0.7,0
		c2.3-0.1,3.4-0.9,4.5-1.6c0.8-0.5,1.5-1,2.8-1.2C19.5,21.1,19.3,21.9,19,22.6z M20,18.6c-2,0.2-3.1,0.9-4.1,1.6
		c-1,0.6-1.8,1.2-3.6,1.3c-1.8,0.1-2.7-0.3-3.7-0.9c-0.8-0.4-1.8-0.9-3.2-1c0.1-0.5,0.3-1,0.4-1.5c0.8-2.2,1.9-4.3,3.2-5.9l11,3.8
		C20.1,16.8,20.1,17.7,20,18.6z M22.6,13.3l8.2-3.2l2.4,6.1c-0.1-0.1-0.3-0.1-0.4-0.2c-0.6-0.3-1.3-0.7-2.5-0.6
		c-1.3,0.1-1.9,0.6-2.4,1c-0.4,0.3-0.7,0.6-1.5,0.6c-0.7,0-1.1-0.1-1.5-0.4c-0.3-0.2-0.7-0.4-1.2-0.5L22.6,13.3z M32.3,35
		c-1.1-0.5-1.9-1.3-2.3-2.4l-5.5-14.2c0.4,0.2,0.9,0.3,1.6,0.3c0.1,0,0.2,0,0.3,0c1.3-0.1,1.9-0.6,2.4-1c0.4-0.3,0.7-0.6,1.5-0.6
		c0.7,0,1.1,0.1,1.5,0.4c0.5,0.3,1.1,0.6,2,0.6l4.3,11.2c0.4,1.1,0.4,2.3-0.1,3.4c-0.5,1.1-1.3,1.9-2.4,2.3
		C34.6,35.5,33.4,35.5,32.3,35z M37.3,39.3c-0.7,0.3-1.5-0.1-1.8-0.8c-0.3-0.7,0.1-1.5,0.8-1.8c0.2-0.1,0.3-0.1,0.5-0.1
		c0.2,0,0.4,0,0.6,0.1c0.3,0.1,0.6,0.4,0.7,0.8C38.4,38.2,38,39,37.3,39.3z"/>
	<path id="XMLID_60_" d="M19.1,0.8v6c0,0.5,0.4,0.9,0.9,0.9c0.5,0,0.9-0.4,0.9-0.9v-6c0-0.3-0.2-0.6-0.5-0.8h-0.8
		C19.3,0.1,19.1,0.4,19.1,0.8z"/>
	<path id="XMLID_61_" d="M13,5.8c-0.3,0.3-0.3,0.9,0,1.2l2.1,2.1c0.2,0.2,0.4,0.3,0.6,0.3c0.2,0,0.5-0.1,0.6-0.3
		c0.3-0.3,0.3-0.9,0-1.2l-2.1-2.1C13.9,5.5,13.3,5.5,13,5.8z"/>
	<path id="XMLID_62_" d="M25.8,5.8l-2.1,2.1c-0.3,0.3-0.3,0.9,0,1.2c0.2,0.2,0.4,0.3,0.6,0.3c0.2,0,0.5-0.1,0.6-0.3l2.1-2.1
		c0.3-0.3,0.3-0.9,0-1.2S26.2,5.5,25.8,5.8z"/>
	<circle id="XMLID_63_" cx="32.5" cy="31.3" r="0.9"/>
	<circle id="XMLID_64_" cx="34.8" cy="27.2" r="0.9"/>
	<circle id="XMLID_65_" cx="30.6" cy="24.1" r="0.9"/>
	<circle id="XMLID_66_" cx="11.9" cy="27.2" r="0.9"/>
	<circle id="XMLID_67_" cx="8" cy="28.3" r="0.9"/>
</g>
</svg>
