<?xml version="1.0" encoding="utf-8"?>
<!-- Generator: Adobe Illustrator 19.0.0, SVG Export Plug-In . SVG Version: 6.00 Build 0)  -->
<svg version="1.1" id="Layer_1" xmlns="http://www.w3.org/2000/svg" xmlns:xlink="http://www.w3.org/1999/xlink" x="0px" y="0px"
	 viewBox="42.1 141 329.8 461.3" style="enable-background:new 42.1 141 329.8 461.3;" xml:space="preserve">
<style type="text/css">
	.st0{fill:#00AEEF;}
	.st1{fill:#1A91E2;}
	.st2{fill:#FFFFFF;}
</style>
<path class="st0" d="M205.6,141c75.7-0.6,142.8,48,161.1,121.4c33.4,134.1-104.2,289.9-147.2,334.6c-6.8,7.1-18.1,7.2-24.9,0.1
	C156.2,557.3,42.1,428.6,42.1,305.9C42.1,215.3,115.2,141.8,205.6,141z"/>
<path class="st1" d="M328.5,308.5c1.4-65.8-52-122.1-117.8-124c-13.6-0.4-26.7,1.5-39,5.2c-7.7,2.4-14-6.6-9.5-13.3
	c13.1-19.6,29.2-32.1,46.8-34.7c-0.2-1.4,0.1,0.8-0.1-0.6C117,140,42.1,214.2,42.1,305.9c0,122.7,114.1,251.4,152.4,291.2
	c4.8,5,11.7,6.3,17.8,4.3c-1.4-1.4-2.5-2.9-3.2-4.3c-13.5-26.6-44.7-92.9-64-170.5c-1.7-7,5.4-13,12-10
	c15.2,6.9,32.1,10.8,49.9,10.8C273.2,427.4,327.1,374.4,328.5,308.5z"/>
<g>
	<polygon class="st2" points="137.9,258.8 261.8,258.8 137.9,380.2 137.9,369 239.4,267.8 137.9,267.8 	"/>
	<polygon class="st2" points="165.2,381.3 178.1,381.3 262.1,298.2 262.1,284.4 	"/>
	<rect x="137.9" y="230.1" class="st2" width="124" height="9"/>
</g>
</svg>
